<svg viewBox="0 0 64 64" xmlns="http://www.w3.org/2000/svg">
 <g>
  <title>ICON_TOOLBAR_AUTOPILOT</title>
  <g id="svg_1">
   <g id="svg_2">
    <path id="svg_3" d="m 9.4622532,45.440727 c 0.0019,-0.201093 0.9461748,-2.990683 4.5585788,-13.46653 l 4.556224,-13.212899 2.52269,-0.01253 2.52269,-0.01253 0.130932,0.374858 c 0.667521,1.911112 9.129663,26.3854 9.152427,26.470737 l 0.03002,0.112519 -2.585665,-6.3e-4 -2.585665,-6.29e-4 -1.358744,-3.695479 -1.358745,-3.695483 -4.388979,0.01235 -4.388978,0.01235 -1.118414,3.430038 c -0.615127,1.886523 -1.154298,3.544175 -1.198155,3.683671 l -0.07974,0.25363 H 11.666318 9.4599072 Z M 23.733109,34.208553 c -0.02572,-0.07307 -0.649502,-1.915508 -1.38617,-4.094307 -0.736667,-2.178799 -1.38704,-4.099259 -1.445272,-4.267689 -0.05823,-0.168428 -0.123207,-0.287997 -0.144387,-0.265707 -0.02118,0.02229 -0.691635,1.95362 -1.489897,4.291844 -0.798263,2.338224 -1.470954,4.300231 -1.494871,4.360014 l -0.04348,0.108699 h 3.025427 3.025428 z M 34.51638,32.215749 V 18.737142 l 5.044671,0.0016 c 5.196719,0.0016 6.554211,0.03207 7.483569,0.167783 2.479427,0.362065 4.195313,1.278547 5.542988,2.960594 0.989863,1.235462 1.611057,2.659038 1.802416,4.130592 0.09196,0.707146 0.03808,2.191156 -0.103866,2.859005 -0.652876,3.07249 -3.086699,5.470482 -6.322246,6.229151 -1.161361,0.272316 -1.339693,0.283171 -5.014075,0.305221 l -3.401623,0.02041 v 5.141431 5.141434 H 37.032297 34.51638 Z m 11.58131,-1.20272 c 1.647397,-0.31991 2.771529,-1.330774 3.164057,-2.845245 0.15428,-0.59526 0.154778,-1.558926 0.0013,-2.145878 -0.203705,-0.778047 -0.613646,-1.462195 -1.200864,-2.004104 -0.542747,-0.50087 -1.217429,-0.808058 -2.044275,-0.930771 -0.200425,-0.02975 -1.559246,-0.04967 -3.401622,-0.0499 l -3.067878,-3.79e-4 v 4.033921 4.033919 l 3.042206,-6.3e-4 c 2.769654,-5.67e-4 3.08387,-0.0087 3.50727,-0.09095 z"/>
   </g>
  </g>
 </g>
</svg>